<?xml version="1.0" encoding="UTF-8"?><svg id="Layer_2" xmlns="http://www.w3.org/2000/svg" viewBox="0 0 286.55 286.55"><defs><style>.cls-1{fill:#c3fdff;}.cls-2{fill:#231f20;}.cls-3{fill:#fff;}</style></defs><g id="Layer_1-2"><path class="cls-1" d="M64.09.76h158.37c34.95,0,63.33,28.38,63.33,63.33v158.37c0,34.95-28.38,63.33-63.33,63.33H64.09c-34.95,0-63.33-28.38-63.33-63.33V64.09C.76,29.14,29.14.76,64.09.76Z"/><path class="cls-2" d="M222.46,286.55H64.09C28.75,286.55,0,257.8,0,222.46V64.09C0,28.75,28.75,0,64.09,0h158.37c35.34,0,64.09,28.75,64.09,64.09v158.37c0,35.34-28.75,64.09-64.09,64.09ZM64.09,1.52C29.59,1.52,1.52,29.59,1.52,64.09v158.37c0,34.5,28.07,62.57,62.57,62.57h158.37c34.5,0,62.57-28.07,62.57-62.57V64.09c0-34.5-28.07-62.58-62.57-62.58H64.09Z"/><path class="cls-3" d="M224,210.23c-21.86,0-40.53,5.31-44.24,12.2-11.49-1.6-24.24-2.19-37.01-1.58.72-.74,1.15-1.65,1.15-2.63,0-2.51-2.78-4.54-6.22-4.54s-6.22,2.03-6.22,4.54c0,1.3.75,2.47,1.94,3.29-1.4.13-2.8.28-4.19.44-37.18,4.38-56.77,18.14-43.74,30.73,13.03,12.59,53.73,19.24,90.91,14.86,35.48-4.18,54.93-16.89,45.33-28.99,23.49-.16,43.08-6.44,43.96-14.16.89-7.82-17.77-14.17-41.67-14.17Z"/><path class="cls-2" d="M153.09,269.64c-29.74,0-57.71-6.34-68.14-16.41-3.77-3.64-5.07-7.62-3.77-11.49,3.23-9.56,21.6-17.43,47.94-20.53.82-.1,1.67-.19,2.55-.28-.63-.81-.97-1.74-.97-2.7,0-2.92,3.13-5.3,6.98-5.3s6.98,2.38,6.98,5.3c0,.62-.14,1.23-.41,1.8,11.87-.48,23.96.07,35.12,1.58,4.46-7.06,23.01-12.13,44.64-12.13,18.94,0,35.24,4.01,40.58,9.98,1.42,1.59,2.05,3.29,1.85,5.03-.9,7.99-19.77,14.41-43.25,14.82,1.9,2.97,2.25,6.09,1,9.11-3.82,9.25-22.09,16.87-47.7,19.89-7.73.91-15.62,1.34-23.39,1.34ZM137.68,214.44c-3.01,0-5.46,1.7-5.46,3.78,0,1,.57,1.95,1.62,2.67l1.71,1.18-2.06.2c-1.45.14-2.85.29-4.17.44-25.37,2.99-43.69,10.65-46.68,19.51-1.12,3.33.02,6.66,3.38,9.91,12.86,12.43,53.37,19,90.3,14.65,24.68-2.91,42.93-10.35,46.48-18.97,1.21-2.93.65-5.89-1.65-8.8l-.97-1.22h1.56c11.3-.09,22.04-1.58,30.23-4.22,7.86-2.53,12.59-5.91,12.98-9.28.15-1.29-.35-2.59-1.47-3.85-4.98-5.58-21.21-9.48-39.45-9.48-21.22,0-39.95,5.07-43.57,11.8l-.25.46-.52-.07c-11.68-1.62-24.43-2.16-36.87-1.57l-1.92.09,1.34-1.38c.61-.63.93-1.35.93-2.1,0-2.08-2.45-3.78-5.46-3.78Z"/><ellipse class="cls-3" cx="146.61" cy="182.63" rx="13.11" ry="13.45"/><path class="cls-2" d="M146.61,196.84c-7.65,0-13.87-6.38-13.87-14.21s6.22-14.21,13.87-14.21,13.87,6.38,13.87,14.21-6.22,14.21-13.87,14.21ZM146.61,169.93c-6.81,0-12.35,5.7-12.35,12.7s5.54,12.7,12.35,12.7,12.35-5.7,12.35-12.7-5.54-12.7-12.35-12.7Z"/><path class="cls-3" d="M177.21,69.74c0-9.54-7.46-17.27-16.65-17.27s-16.65,7.73-16.65,17.27c0,5.07,2.11,9.63,5.46,12.79-6.64.49-11.89,6.34-11.89,13.5s5.73,13.55,12.8,13.55,12.8-6.07,12.8-13.55c0-3.48-1.25-6.64-3.28-9.04.26.01.52.02.78.02,9.2,0,16.65-7.73,16.65-17.27Z"/><path class="cls-2" d="M150.27,110.34c-7.47,0-13.56-6.42-13.56-14.31,0-6.92,4.75-12.81,11.06-14.05-2.96-3.32-4.63-7.7-4.63-12.24,0-9.94,7.81-18.03,17.41-18.03s17.41,8.09,17.41,18.03-7.41,17.6-16.66,18.01c1.63,2.42,2.52,5.3,2.52,8.28,0,7.89-6.08,14.31-13.56,14.31ZM160.56,53.22c-8.76,0-15.9,7.41-15.9,16.51,0,4.65,1.9,9.11,5.22,12.24l1.25,1.18-1.72.13c-6.28.47-11.19,6.07-11.19,12.75,0,7.06,5.4,12.8,12.04,12.8s12.04-5.74,12.04-12.8c0-3.15-1.1-6.19-3.1-8.55l-1.13-1.33,1.74.08c.25.01.49.02.74.02,8.76,0,15.9-7.41,15.9-16.51s-7.13-16.51-15.9-16.51Z"/><path class="cls-3" d="M138.44,4.34c0,10.24,8.78,18.53,19.61,18.53s19.61-8.3,19.61-18.53c0-.98-.08-1.95-.24-2.89h-38.74c-.16.94-.24,1.91-.24,2.89Z"/><path class="cls-2" d="M176.9,4.34c0,9.8-8.46,17.78-18.85,17.78s-18.85-7.97-18.85-17.78c0-.98.09-1.95.25-2.89h-1.54c-.15.94-.23,1.91-.23,2.89,0,10.64,9.14,19.29,20.36,19.29s20.36-8.65,20.36-19.29c0-.98-.08-1.95-.23-2.89h-1.54c.16.94.25,1.91.25,2.89Z"/></g></svg>