<?xml version="1.0" encoding="UTF-8"?><svg id="Layer_2" xmlns="http://www.w3.org/2000/svg" viewBox="0 0 362.83 435.5"><defs><style>.cls-1,.cls-2{fill:none;}.cls-2{stroke:#000;stroke-linecap:round;stroke-linejoin:round;stroke-width:3px;}</style></defs><g id="Layer_1-2"><rect class="cls-1" width="362.83" height="435.5"/><path d="M251.52,359.02l15.14,10.85s30.54-15.48,33.08-64.93c-21.65,49.99-48.22,54.08-48.22,54.08Z"/><path d="M230.83,364.2l16.03.51s32.92-7.55,15.59-60.57c-1.3,40.75-31.62,60.06-31.62,60.06Z"/><path d="M197.34,368.78c-4.11,7.78,8.19,16.53,12.47,17.93,53.74-43.12,27.71-113.72,27.71-113.72,0,0-.66,70.64-40.18,95.79Z"/><path d="M260.6,387.13c-.17-.81-.96-1.33-1.77-1.17-75.66,15.41-146.11.39-183.45-17.16-.75-.35-1.64-.03-2,.72s-.03,1.64.72,2c25.81,12.13,67.23,23.07,115.27,23.81.16.26.41.48.71.6.16.06,15.66,6.35,21.14,19.32.24.57.8.92,1.38.92.19,0,.39-.04.58-.12.76-.32,1.12-1.2.8-1.97-4.07-9.63-12.84-15.72-18.24-18.72,5.3-.02,10.68-.17,16.11-.45.13.08.27.14.43.17.14.03,13.82,3.06,20.1,12.77.29.44.77.69,1.26.69.28,0,.56-.08.81-.24.7-.45.89-1.38.44-2.07-3.95-6.1-10.29-9.77-15.16-11.82,2.17-.17,4.34-.35,6.53-.56.04.01.08.03.12.03.15.02,15.08,2.47,22.25,11.36.3.37.73.56,1.17.56.33,0,.66-.11.94-.33.65-.52.75-1.46.23-2.11-4.38-5.43-11.11-8.63-16.35-10.42,8.18-1,16.46-2.33,24.79-4.03.81-.17,1.34-.96,1.17-1.77Z"/><path class="cls-2" d="M301.91,343.21c-83.23,22.17-168.34,27.5-257.97-21.9"/><path d="M14.78,315.99c55.8,40.98,123.75,59.68,192.41,52.02,9.52-1.09,18.99-2.54,28.37-4.46,9.38-2.07,18.67-4.42,28.07-6.43,16.34-3.61,32.55-7.39,49.33-8.97,0,0,.46.89.46.89-4.58,5.5-9.93,10.06-15.59,14.36-11.28,8.21-23.92,14.42-37.16,18.79-16.62,5.17-33.92,8.01-51.23,9.57-44.86,3.81-91.35-4.24-131.33-24.88-24.5-12.62-46.53-29.63-64.02-50.15,0,0,.68-.74.68-.74h0Z"/></g></svg>