<?xml version="1.0" encoding="UTF-8"?><svg id="Layer_2" xmlns="http://www.w3.org/2000/svg" xmlns:xlink="http://www.w3.org/1999/xlink" viewBox="0 0 362.83 435.5"><defs><style>.cls-1{fill:none;}.cls-2{fill:#070738;}.cls-3{fill:url(#linear-gradient);}.cls-4{fill:#fff;}.cls-5{fill:#ffd4e4;}</style><linearGradient id="linear-gradient" x1="177.93" y1="339.08" x2="177.93" y2="97.12" gradientUnits="userSpaceOnUse"><stop offset="0" stop-color="#a67aff"/><stop offset="1" stop-color="#242581"/></linearGradient></defs><g id="Layer_1-2"><rect class="cls-1" width="362.83" height="435.5"/><path class="cls-4" d="M313.92,233.58c-8.82,80-55.52,143.41-112.14,160.24-27.47,1.11-62.01-4.04-76.4-6.84-53.79-27.3-87.33-100.88-78.3-182.8,10.88-98.71,56.63-140.71,143.11-139.02,74.12,1.45,134.6,69.72,123.73,168.42Z"/><polygon class="cls-3" points="89.64 96.43 123.36 79.75 173.04 66.7 235.04 77.94 282.18 112.75 294.51 151.18 296.33 197.96 289.8 237.85 276.02 279.55 253.54 314 241.57 327.78 206.04 352.07 175.21 360.05 152.73 358.6 128.07 350.62 103.05 331.4 78.4 296.59 62.44 244.37 59.54 207.03 63.17 175.12 69.33 144.66 85.29 102.59 89.64 96.43"/><path d="M35.64,141.25c41.8-53.46,108.43-97.8,178.92-81.28,43.75,10.04,81.1,41.82,101.39,81.45,8.77,17.9,13.55,38.14,11.66,58.09-.69,6.53-2.08,13.14-4.65,19.21,0,0-1-.08-1-.08-2.26-8.42-4.42-16.21-7.19-23.75-8.02-22-18.77-42.65-32.37-61.6-13.62-18.39-31.36-33.95-51.94-44.04-46.18-22.85-96.34-12.05-139.25,12.97-19.6,11.34-37.44,24.94-54.85,39.72,0,0-.72-.69-.72-.69h0Z"/><path d="M297.12,209.7c3.57-31.65.49-61.97-7.78-88.39-2.59-2.74-5.24-5.39-7.96-7.95,10.43,27.84,14.7,60.98,10.77,95.78-9.99,88.52-69.24,154.77-132.09,147.68-30.28-3.42-56.93-23.23-75.05-55.78-18.27-32.82-25.65-74.6-20.79-117.63,4.16-36.85,16.85-69.83,34.79-95.28-3.33,1.85-6.6,3.8-9.81,5.88-15.37,24.74-26.15,55.22-29.95,88.83-4.97,44.06,2.62,86.9,21.39,120.62,18.92,34,46.93,54.71,78.85,58.31,3.27.37,6.52.55,9.76.55,61.83,0,118.06-65.92,127.85-152.64Z"/><ellipse class="cls-2" cx="175.7" cy="213.37" rx="65.57" ry="54.18" transform="translate(-57.57 361.64) rotate(-82.97)"/><path d="M217.58,229.14c-1.41,0-2.81-.13-4.21-.38-21.43-3.95-33.31-37.34-26.47-74.44,6.83-37.1,29.83-64.07,51.26-60.12,21.43,3.95,33.31,37.34,26.47,74.44l-1.48-.27,1.48.27c-6.39,34.68-26.9,60.51-47.05,60.51Z"/><ellipse class="cls-4" cx="225.76" cy="161.48" rx="64.24" ry="36.5" transform="translate(26.06 354.25) rotate(-79.56)"/><path d="M121.28,287.99c-.17,0-.34-.03-.5-.09-1.09-.39-26.77-9.63-31.87-25.89-2.16-6.9-.06-13.45,5.62-17.54,6.69-4.81,16.06-4.9,23.18-.33,7.12-5.73,16.94-6.99,24.27-3.01,6.04,3.28,8.86,9.32,7.76,16.57-2.72,17.83-26.79,29.64-27.81,30.13-.21.1-.43.15-.65.15Z"/><path class="cls-5" d="M117.92,248.42c-11.62-9.16-30.57-.62-24.99,13.3,5.4,13.48,28.44,21.95,28.44,21.95,0,0,21.33-10.87,24.27-25.67s-16.38-19.65-27.71-9.58Z"/><path d="M231.85,363.87c-7.71,0-16.57-2.04-25.2-5.83-20.11-8.83-32.26-23.92-27.68-34.36,4.58-10.44,23.92-11.7,44.03-2.87,20.11,8.83,32.26,23.92,27.68,34.36-2.26,5.15-8.21,8.23-16.75,8.65-.68.03-1.37.05-2.07.05Z"/><path class="cls-4" d="M221.3,323.87c-17.73-7.79-34.69-7.44-38.59,1.43-3.89,8.87,7.74,21.76,25.48,29.54,17.73,7.79,34.85,7.52,38.74-1.34,3.89-8.87-7.9-21.85-25.63-29.63Z"/><path d="M320.19,137.42c-.54,0-1.07-.3-1.33-.81-23.6-45.7-61.95-76.24-108-86-49.42-10.47-102.51,4.55-149.49,42.28-.65.52-1.59.42-2.11-.23-.52-.65-.42-1.59.23-2.11,47.7-38.31,101.67-53.53,151.99-42.87,46.94,9.94,86.02,41.04,110.04,87.55.38.74.09,1.64-.64,2.02-.22.11-.46.17-.69.17Z"/><path d="M287.88,122.39l10.23,15.56s34.06-3.48,54.18-48.73c-38.15,38.88-64.42,33.17-64.42,33.17Z"/><path d="M274.24,99.21l2.84,13.97s30.43,14.66,49.99-37.58c-26.46,31.02-52.83,23.61-52.83,23.61Z"/><path d="M256.3,79.05c-6.63,5.79,1.71,18.37,5.2,21.21,65.64-20.95,66.69-96.19,66.69-96.19,0,0-25.98,65.69-71.89,74.98Z"/><path d="M260.61,387.12c-.17-.81-.96-1.33-1.77-1.17-75.66,15.41-146.11.39-183.45-17.16-.75-.35-1.64-.03-2,.72s-.03,1.64.72,2c25.81,12.13,67.23,23.07,115.27,23.81.16.26.41.48.71.6.16.06,15.66,6.35,21.14,19.32.24.57.8.92,1.38.92.19,0,.39-.04.58-.12.76-.32,1.12-1.2.8-1.97-4.07-9.63-12.84-15.72-18.24-18.72,5.3-.02,10.68-.17,16.11-.45.13.08.27.14.43.17.14.03,13.82,3.06,20.1,12.77.29.44.77.69,1.26.69.28,0,.56-.08.81-.24.7-.45.89-1.38.44-2.07-3.95-6.1-10.29-9.77-15.16-11.82,2.17-.17,4.34-.35,6.53-.56.04.01.08.03.12.03.15.02,15.08,2.47,22.25,11.36.3.37.73.56,1.17.56.33,0,.66-.11.94-.33.65-.52.75-1.46.23-2.11-4.38-5.43-11.11-8.63-16.35-10.42,8.18-1,16.46-2.33,24.79-4.03.81-.17,1.34-.96,1.17-1.77Z"/></g></svg>