<?xml version="1.0" encoding="UTF-8"?><svg id="Layer_2" xmlns="http://www.w3.org/2000/svg" xmlns:xlink="http://www.w3.org/1999/xlink" viewBox="0 0 362.83 435.5"><defs><style>.cls-1,.cls-2{fill:none;}.cls-3{fill:#070738;}.cls-2{stroke:#000;stroke-linecap:round;stroke-linejoin:round;stroke-width:3px;}.cls-4{fill:url(#linear-gradient);}.cls-5{clip-path:url(#clippath-1);}.cls-6{fill:#fff;}.cls-7{fill:#ffd4e4;}.cls-8{clip-path:url(#clippath);}</style><clipPath id="clippath"><polygon class="cls-1" points="300.01 360.86 323.43 275.41 318.81 229.56 281.2 170.17 228.75 138.5 157.49 120.03 97.45 135.86 63.14 154.67 41.37 174.13 25.53 258.92 32.46 358.55 46.32 395.5 85.57 415.29 226.11 429.15 300.01 360.86"/></clipPath><clipPath id="clippath-1"><polygon class="cls-1" points="286.48 348.65 310.57 218.34 284.5 177.76 211.27 129.6 145.62 119.37 97.12 133.23 63.14 154.67 52.58 165.23 45.99 350.63 100.42 409.02 285.82 399.79 286.48 348.65"/></clipPath><linearGradient id="linear-gradient" x1="177.94" y1="339.08" x2="177.94" y2="97.12" gradientUnits="userSpaceOnUse"><stop offset="0" stop-color="#a67aff"/><stop offset="1" stop-color="#242581"/></linearGradient></defs><g id="Layer_1-2"><rect class="cls-1" width="362.83" height="435.5"/><g class="cls-8"><path class="cls-6" d="M313.92,233.58c-8.82,80-55.52,143.41-112.14,160.24-27.47,1.11-62.01-4.04-76.4-6.84-53.79-27.3-87.33-100.88-78.3-182.8,10.88-98.71,56.63-140.71,143.11-139.02,74.12,1.45,134.6,69.72,123.73,168.42Z"/></g><g class="cls-5"><polygon class="cls-4" points="89.64 96.43 123.37 79.75 173.04 66.7 235.05 77.94 282.19 112.75 294.52 151.18 296.33 197.96 289.8 237.85 276.02 279.55 253.54 314 241.58 327.78 206.04 352.07 175.22 360.05 152.74 358.6 128.08 350.62 103.06 331.4 78.4 296.59 62.45 244.37 59.55 207.03 63.17 175.12 69.34 144.66 85.29 102.59 89.64 96.43"/></g><path d="M298.18,197.4l-4.65-8.53c-.15,6.68-.6,13.44-1.37,20.28-9.99,88.52-69.24,154.77-132.09,147.68-30.28-3.42-56.93-23.23-75.05-55.78-18.27-32.82-25.65-74.6-20.79-117.63,1.41-12.47,3.81-24.47,7.05-35.91l-.55.24-6.16,5.54c-2.36,9.52-4.16,19.4-5.31,29.57-4.97,44.06,2.62,86.9,21.39,120.62,18.92,34,46.93,54.71,78.85,58.31,3.27.37,6.52.55,9.76.55,61.83,0,118.06-65.92,127.85-152.64.47-4.13.81-8.23,1.06-12.31Z"/><path d="M264.64,168.64c.48-2.62.86-5.22,1.16-7.79l-9.01-10.13-61.26-23.59c-3.8,8.08-6.8,17.27-8.62,27.19-6.83,37.1,5.04,70.49,26.47,74.44,1.4.26,2.8.38,4.21.38,20.15,0,40.66-25.83,47.05-60.51Z"/><ellipse class="cls-3" cx="175.71" cy="213.37" rx="65.57" ry="54.18" transform="translate(-57.56 361.64) rotate(-82.97)"/><path class="cls-6" d="M261.67,168.09c.32-1.74.58-3.46.82-5.17l-31.43-25.73-32.4-9.46c-3.89,7.96-6.95,17.16-8.79,27.14-6.43,34.89,4.43,66.14,24.26,69.79,19.82,3.65,41.11-21.67,47.53-56.56Z"/><path d="M121.29,287.99c-.17,0-.34-.03-.5-.09-1.09-.39-26.77-9.63-31.87-25.89-2.16-6.9-.06-13.45,5.62-17.54,6.69-4.81,16.06-4.9,23.18-.33,7.12-5.73,16.94-6.99,24.27-3.01,6.04,3.28,8.86,9.32,7.76,16.57-2.72,17.83-26.79,29.64-27.81,30.13-.21.1-.43.15-.65.15Z"/><path class="cls-7" d="M117.93,248.42c-11.62-9.16-30.57-.62-24.99,13.3,5.4,13.48,28.44,21.95,28.44,21.95,0,0,21.33-10.87,24.27-25.67s-16.38-19.65-27.71-9.58Z"/><path d="M231.86,363.87c-7.71,0-16.57-2.04-25.2-5.83-20.11-8.83-32.26-23.92-27.68-34.36,4.58-10.44,23.92-11.7,44.03-2.87,20.11,8.83,32.26,23.92,27.68,34.36-2.26,5.15-8.21,8.23-16.75,8.65-.68.03-1.37.05-2.07.05Z"/><path class="cls-6" d="M221.31,323.87c-17.73-7.79-34.69-7.44-38.59,1.43-3.89,8.87,7.74,21.76,25.48,29.54,17.73,7.79,34.85,7.52,38.74-1.34,3.89-8.87-7.9-21.85-25.63-29.63Z"/><path d="M287.88,183.4l10.23,15.56s34.06-3.48,54.18-48.73c-38.15,38.88-64.42,33.17-64.42,33.17Z"/><path d="M274.25,160.22l2.84,13.97s30.43,14.66,49.99-37.58c-26.46,31.02-52.83,23.61-52.83,23.61Z"/><path d="M256.3,140.05c-6.63,5.79,1.71,18.37,5.2,21.21,65.64-20.95,66.69-96.19,66.69-96.19,0,0-25.98,65.69-71.89,74.98Z"/><path d="M260.62,387.12c-.17-.81-.96-1.33-1.77-1.17-75.66,15.41-146.11.39-183.45-17.16-.75-.35-1.64-.03-2,.72s-.03,1.64.72,2c25.81,12.13,67.23,23.07,115.27,23.81.16.26.41.48.71.6.16.06,15.66,6.35,21.14,19.32.24.57.8.92,1.38.92.19,0,.39-.04.58-.12.76-.32,1.12-1.2.8-1.97-4.07-9.63-12.84-15.72-18.24-18.72,5.3-.02,10.68-.17,16.11-.45.13.08.27.14.43.17.14.03,13.82,3.06,20.1,12.77.29.44.77.69,1.26.69.28,0,.56-.08.81-.24.7-.45.89-1.38.44-2.07-3.95-6.1-10.29-9.77-15.16-11.82,2.17-.17,4.34-.35,6.53-.56.04.01.08.03.12.03.15.02,15.08,2.47,22.25,11.36.3.37.73.56,1.17.56.33,0,.66-.11.94-.33.65-.52.75-1.46.23-2.11-4.38-5.43-11.11-8.63-16.35-10.42,8.18-1,16.46-2.33,24.79-4.03.81-.17,1.34-.96,1.17-1.77Z"/><path d="M35.62,181.28c59.18-91.05,184.43-89.23,256.05-13.91,17.42,17.98,30.1,41.41,32.56,66.52.81,8.27.63,16.62-1.27,24.72,0,0-.99.11-.99.11-3.68-7.39-6.97-14.39-10.57-21.07-24.79-46.66-58.88-83.38-110.67-99.3-42.46-13.62-90.08-8.76-128.27,14.82-12.99,7.88-24.99,17.69-36.07,28.73l-.78-.63h0Z"/><path class="cls-2" d="M318.15,199.54c-25.07-72.91-142.52-147.47-256.99-69.94"/></g></svg>