<?xml version="1.0" encoding="UTF-8"?><svg id="Layer_2" xmlns="http://www.w3.org/2000/svg" xmlns:xlink="http://www.w3.org/1999/xlink" viewBox="0 0 362.83 435.5"><defs><style>.cls-1,.cls-2{fill:none;}.cls-3{fill:#070738;}.cls-2{stroke:#000;stroke-linecap:round;stroke-linejoin:round;stroke-width:3px;}.cls-4{fill:url(#linear-gradient);}.cls-5{fill:#fff;}.cls-6{fill:#ffd4e4;}.cls-7{clip-path:url(#clippath);}</style><clipPath id="clippath"><polygon class="cls-1" points="285.04 386.39 319.5 212.35 313.78 215.62 229.53 241.09 149.18 235.21 106.08 223.45 38.15 185.57 45.49 382.18 136.12 407 285.04 386.39"/></clipPath><linearGradient id="linear-gradient" x1="177.88" y1="339.06" x2="177.88" y2="97.1" gradientUnits="userSpaceOnUse"><stop offset="0" stop-color="#a67aff"/><stop offset="1" stop-color="#242581"/></linearGradient></defs><g id="Layer_1-2"><rect class="cls-1" width="362.83" height="435.5"/><path class="cls-5" d="M315.11,213.42l-100.61,24.41-115.61-12.41-50.35-33.03c-.56,3.84-1.07,7.76-1.51,11.78-9.03,81.92,24.51,155.5,78.3,182.8,14.39,2.8,48.93,7.95,76.4,6.84,56.62-16.83,103.33-80.23,112.14-160.24.76-6.87,1.16-13.59,1.24-20.15Z"/><g class="cls-7"><polygon class="cls-4" points="89.59 96.42 123.31 79.74 172.99 66.68 234.99 77.92 282.13 112.73 294.46 151.17 296.28 197.95 289.75 237.83 275.97 279.53 253.49 313.98 241.52 327.76 205.99 352.06 175.16 360.03 152.68 358.58 128.02 350.6 103 331.39 78.35 296.58 62.39 244.36 59.49 207.01 63.12 175.1 69.28 144.64 85.24 102.58 89.59 96.42"/></g><path d="M290.71,219.34c-13.22,83.35-70.29,144.29-130.69,137.47-30.28-3.42-56.93-23.23-75.05-55.78-15.65-28.13-23.31-62.83-22.12-99.26l-4.88-3.2c-1.75,38.44,6.11,75.2,22.64,104.89,18.92,34,46.93,54.71,78.85,58.31,3.27.37,6.52.55,9.76.55,59.83,0,114.41-61.72,126.75-144.27l-5.26,1.28Z"/><path class="cls-3" d="M226.23,234.47l-50.27,3.35-46.38-3.92-6.96-3.15c4.81,25.24,22.18,44.86,45,47.68,25.53,3.15,49.55-15.76,58.6-43.96Z"/><path d="M121.23,287.97c-.17,0-.34-.03-.5-.09-1.09-.39-26.77-9.63-31.87-25.89-2.16-6.9-.06-13.45,5.62-17.54,6.69-4.81,16.06-4.9,23.18-.33,7.12-5.73,16.94-6.99,24.27-3.01,6.04,3.28,8.86,9.32,7.76,16.57-2.72,17.83-26.79,29.64-27.81,30.13-.21.1-.43.15-.65.15Z"/><path class="cls-6" d="M117.87,248.4c-11.62-9.16-30.57-.62-24.99,13.3s28.44,21.95,28.44,21.95c0,0,21.33-10.87,24.27-25.67s-16.38-19.65-27.71-9.58Z"/><path d="M231.8,363.86c-7.71,0-16.57-2.04-25.2-5.83-20.11-8.83-32.26-23.92-27.68-34.36,4.58-10.44,23.92-11.7,44.03-2.87,20.11,8.83,32.26,23.92,27.68,34.36-2.26,5.15-8.21,8.23-16.75,8.65-.68.03-1.37.05-2.07.05Z"/><path class="cls-5" d="M221.25,323.86c-17.73-7.79-34.69-7.44-38.59,1.43-3.89,8.87,7.74,21.76,25.48,29.54,17.73,7.79,34.85,7.52,38.74-1.34,3.89-8.87-7.9-21.85-25.63-29.63Z"/><path d="M270.71,220.42l15.14,10.85s30.54-15.48,33.08-64.93c-21.65,49.99-48.22,54.08-48.22,54.08Z"/><path d="M250.02,225.6l16.03.51s32.92-7.55,15.59-60.57c-1.3,40.75-31.62,60.06-31.62,60.06Z"/><path d="M216.53,229.18c-4.11,7.78,8.19,16.53,12.47,17.93,53.74-43.12,27.71-113.72,27.71-113.72,0,0-.66,70.64-40.18,95.79Z"/><path d="M260.56,387.11c-.17-.81-.96-1.33-1.77-1.17-75.66,15.41-146.11.39-183.45-17.16-.75-.35-1.64-.03-2,.72s-.03,1.64.72,2c25.81,12.13,67.23,23.07,115.27,23.81.16.26.41.48.71.6.16.06,15.66,6.35,21.14,19.32.24.57.8.92,1.38.92.19,0,.39-.04.58-.12.76-.32,1.12-1.2.8-1.97-4.07-9.63-12.84-15.72-18.24-18.72,5.3-.02,10.68-.17,16.11-.45.13.08.27.14.43.17.14.03,13.82,3.06,20.1,12.77.29.44.77.69,1.26.69.28,0,.56-.08.81-.24.7-.45.89-1.38.44-2.07-3.95-6.1-10.29-9.77-15.16-11.82,2.17-.17,4.34-.35,6.53-.56.04.01.08.03.12.03.15.02,15.08,2.47,22.25,11.36.3.37.73.56,1.17.56.33,0,.66-.11.94-.33.65-.52.75-1.46.23-2.11-4.38-5.43-11.11-8.63-16.35-10.42,8.18-1,16.46-2.33,24.79-4.03.81-.17,1.34-.96,1.17-1.77Z"/><path class="cls-2" d="M316.46,203.95c-75.87,19.84-165.26,33.5-257.97-21.9"/><path d="M29.99,176.06c55.8,40.98,123.75,59.68,192.41,52.02,9.52-1.09,18.99-2.54,28.37-4.46,9.38-2.07,18.67-4.42,28.07-6.43,16.34-3.61,32.55-7.39,49.33-8.97,0,0,.46.89.46.89-4.58,5.5-9.93,10.06-15.59,14.36-11.28,8.21-23.92,14.42-37.16,18.79-16.62,5.17-33.92,8.01-51.23,9.57-44.86,3.81-91.35-4.24-131.33-24.88-24.5-12.62-46.53-29.63-64.02-50.15,0,0,.68-.73.68-.73h0Z"/></g></svg>